<?xml version="1.0" standalone="no"?>
<!DOCTYPE svg PUBLIC "-//W3C//DTD SVG 20010904//EN"
 "http://www.w3.org/TR/2001/REC-SVG-20010904/DTD/svg10.dtd">
<svg version="1.0" xmlns="http://www.w3.org/2000/svg"
 width="383.000000pt" height="383.000000pt" viewBox="0 0 383.000000 383.000000"
 preserveAspectRatio="xMidYMid meet">

<g transform="translate(0.000000,383.000000) scale(0.100000,-0.100000)"
fill="#000000" stroke="none">
<path d="M1840 3796 c-65 -14 -112 -38 -158 -77 -39 -35 -62 -36 -154 -8 -150
46 -301 -8 -383 -136 -19 -29 -42 -56 -52 -60 -10 -5 -54 -9 -98 -11 -171 -4
-288 -96 -331 -256 -15 -60 -39 -84 -92 -94 -90 -16 -182 -90 -227 -181 -23
-47 -29 -75 -33 -148 -5 -105 -10 -117 -60 -149 -101 -65 -151 -148 -159 -266
-4 -60 -1 -87 16 -135 28 -80 27 -94 -15 -149 -61 -80 -79 -131 -79 -221 1
-89 25 -156 84 -229 37 -46 38 -62 10 -141 -17 -47 -20 -76 -17 -135 7 -112
53 -189 164 -271 l52 -38 4 -98 c3 -82 8 -108 31 -155 45 -93 121 -151 247
-189 49 -15 59 -30 86 -123 22 -75 93 -154 172 -193 48 -23 71 -28 144 -30 48
-1 95 -6 104 -11 10 -5 33 -34 53 -63 88 -130 242 -181 391 -129 79 28 102 25
152 -16 69 -58 121 -77 213 -78 91 0 142 18 221 78 54 42 78 44 154 15 44 -17
70 -20 130 -17 119 7 171 42 291 189 24 30 28 32 96 30 181 -4 328 107 357
270 8 43 39 74 85 84 163 34 263 165 265 343 1 81 2 84 33 110 115 97 134 116
159 170 37 77 40 189 6 275 -25 66 -26 64 39 159 47 69 62 117 61 199 0 77
-31 157 -82 215 -35 41 -39 82 -12 146 11 29 17 69 16 123 0 67 -5 89 -27 132
-35 68 -78 116 -131 147 -53 31 -65 60 -65 151 2 157 -91 280 -243 322 -70 20
-91 41 -112 114 -19 68 -58 127 -111 170 -67 54 -119 71 -215 73 -47 2 -91 6
-98 10 -6 3 -30 34 -53 66 -47 68 -109 113 -183 135 -67 20 -122 19 -198 -5
-88 -28 -107 -26 -168 20 -86 64 -186 88 -280 66z m195 -41 c28 -12 68 -37 90
-54 34 -28 46 -32 80 -28 22 2 58 12 80 20 51 20 150 21 204 2 66 -23 128 -72
170 -134 22 -32 47 -61 56 -65 9 -3 50 -6 90 -6 90 0 164 -25 223 -76 59 -50
83 -88 112 -174 25 -74 26 -75 75 -93 141 -54 203 -100 245 -184 19 -38 25
-70 30 -152 7 -114 1 -104 94 -168 84 -59 145 -188 132 -282 -3 -26 -15 -74
-27 -106 -23 -67 -20 -92 20 -137 60 -70 76 -114 76 -218 0 -104 -16 -148 -76
-218 -42 -47 -45 -73 -18 -140 54 -133 14 -290 -94 -372 -109 -81 -107 -78
-107 -177 0 -76 -4 -96 -28 -148 -29 -60 -86 -121 -139 -148 -15 -8 -54 -22
-86 -31 -64 -19 -90 -48 -101 -114 -13 -83 -121 -198 -209 -223 -23 -7 -76
-13 -117 -14 -93 -2 -104 -7 -136 -61 -78 -134 -237 -194 -381 -145 -87 29
-125 27 -165 -8 -134 -117 -298 -114 -448 8 -32 26 -75 26 -153 0 -118 -40
-254 -6 -331 84 -20 23 -52 60 -70 82 l-34 40 -89 1 c-103 1 -157 20 -222 80
-51 46 -84 100 -105 176 -18 64 -35 80 -106 98 -155 40 -264 195 -243 346 7
56 -12 89 -78 133 -96 64 -158 190 -145 295 3 28 15 75 26 105 23 60 17 103
-21 137 -31 28 -69 110 -78 165 -15 91 16 197 75 259 43 46 48 79 22 146 -29
75 -31 180 -5 244 25 61 80 126 137 161 54 33 74 71 67 126 -6 47 10 138 30
177 42 81 116 135 245 181 35 12 50 24 62 49 9 19 16 41 16 50 0 29 46 109 86
150 56 57 133 90 224 94 110 4 116 7 153 65 65 101 166 157 280 157 34 -1 80
-8 102 -17 22 -8 59 -18 81 -20 35 -4 46 0 75 25 102 90 236 111 354 57z"/>
<path d="M2085 3640 c10 -11 20 -20 23 -20 3 0 -3 9 -13 20 -10 11 -20 20 -23
20 -3 0 3 -9 13 -20z"/>
<path d="M1804 3615 c-119 -85 -187 -98 -299 -56 -99 37 -168 16 -234 -72 -80
-107 -133 -137 -250 -137 -112 -1 -179 -45 -201 -134 -27 -110 -92 -183 -189
-210 -123 -34 -161 -84 -161 -211 0 -121 -31 -177 -143 -259 -79 -57 -97 -138
-57 -244 36 -95 19 -173 -61 -279 -23 -30 -33 -56 -37 -91 -5 -53 9 -86 73
-175 45 -63 54 -122 31 -202 -43 -144 -29 -213 51 -267 108 -74 143 -139 143
-265 0 -45 6 -85 14 -102 23 -43 79 -88 122 -96 109 -20 180 -92 214 -219 25
-92 96 -136 218 -136 100 0 169 -38 227 -126 61 -91 147 -116 255 -74 94 37
171 22 266 -51 45 -35 65 -43 108 -47 56 -4 117 18 147 54 24 30 111 64 161
64 26 0 70 -9 98 -20 110 -43 192 -17 260 83 20 29 56 64 83 81 41 25 62 31
140 36 55 4 105 13 123 23 44 23 82 71 94 120 19 74 33 101 76 144 33 33 58
46 116 63 120 36 158 87 158 217 0 121 35 183 137 247 54 33 84 89 82 153 l-2
48 -6 -55 c-7 -69 -26 -98 -95 -150 -98 -72 -126 -127 -126 -247 0 -123 -38
-172 -160 -207 -93 -26 -165 -103 -185 -196 -21 -100 -75 -138 -214 -149 -124
-10 -174 -36 -235 -125 -67 -96 -128 -115 -242 -75 -105 37 -203 17 -286 -57
-69 -61 -144 -58 -232 11 -90 70 -169 82 -272 44 -96 -36 -177 -16 -219 54
-60 101 -134 144 -259 151 -128 7 -174 39 -206 146 -35 117 -89 169 -210 204
-97 27 -133 83 -134 206 -1 117 -27 166 -122 237 -69 52 -103 101 -104 150 0
13 10 51 21 84 39 111 23 203 -50 293 -63 78 -61 148 7 237 22 30 46 68 52 84
19 48 14 137 -10 202 -16 42 -20 69 -15 98 8 54 25 77 93 127 101 75 124 118
127 244 2 61 8 101 19 122 21 41 79 78 133 87 79 12 175 106 189 184 10 54 40
107 75 132 26 18 51 24 128 29 131 9 187 39 250 132 63 94 126 116 221 77 36
-14 77 -22 120 -23 70 0 105 14 186 75 23 17 57 35 75 39 l34 8 -31 1 c-21 1
-48 -10 -80 -34z"/>
<path d="M1951 3638 c20 -5 57 -27 83 -48 62 -52 131 -74 199 -65 29 4 60 11
69 16 9 5 41 16 70 23 42 12 47 15 23 15 -16 1 -55 -8 -85 -20 -61 -23 -148
-27 -195 -9 -16 6 -48 27 -71 45 -44 37 -84 56 -112 54 -9 -1 -1 -5 19 -11z"/>
<path d="M2599 3522 c21 -32 47 -64 57 -72 10 -8 -6 18 -35 58 -63 86 -78 96
-22 14z"/>
<path d="M1865 3555 c-16 -9 -39 -25 -50 -35 -73 -67 -203 -88 -310 -51 -99
35 -125 28 -175 -44 -78 -113 -157 -157 -286 -157 -109 0 -133 -17 -163 -117
-34 -113 -135 -206 -246 -227 -43 -8 -85 -43 -85 -71 1 -14 4 -12 15 8 11 20
34 33 96 55 126 44 199 119 235 245 22 76 40 89 128 89 136 0 218 41 306 154
25 33 57 63 71 66 15 5 52 -2 99 -17 119 -39 219 -22 321 55 70 53 100 54 163
6 108 -82 206 -100 329 -61 98 31 126 25 163 -38 61 -106 151 -155 295 -164
57 -4 102 -11 112 -19 9 -8 26 -44 37 -80 39 -124 121 -205 240 -238 83 -23
100 -48 100 -142 0 -42 5 -94 10 -114 15 -54 69 -128 120 -165 102 -76 105
-83 70 -183 -39 -112 -20 -228 55 -328 25 -33 45 -67 45 -77 0 -21 -16 -51
-52 -95 -65 -82 -85 -213 -48 -317 34 -98 35 -96 -96 -208 -71 -61 -96 -120
-103 -243 -7 -120 -13 -130 -108 -157 -122 -36 -203 -118 -234 -238 -6 -26
-22 -57 -35 -71 -21 -21 -36 -24 -117 -28 -138 -6 -230 -57 -291 -163 -37 -62
-68 -70 -156 -39 -122 42 -223 25 -338 -60 -27 -20 -61 -36 -76 -36 -15 0 -51
19 -87 45 -105 78 -195 92 -322 51 -93 -29 -119 -21 -168 52 -68 101 -166 152
-293 152 -90 0 -119 18 -140 89 -22 75 -51 124 -99 168 -53 49 -87 68 -151 84
-30 7 -55 22 -71 41 -14 16 -25 25 -25 19 0 -25 49 -61 104 -76 127 -36 201
-115 236 -252 16 -64 47 -83 137 -83 131 0 224 -47 293 -148 19 -28 49 -59 66
-68 31 -17 34 -17 90 3 85 30 135 36 200 23 61 -13 110 -38 162 -82 47 -40 88
-38 148 8 78 60 129 78 214 77 52 0 91 -7 127 -21 74 -30 105 -22 152 42 87
117 176 166 302 166 99 0 124 15 145 88 32 114 109 205 202 237 138 49 139 51
145 180 5 129 47 207 149 276 64 44 82 81 65 134 -31 100 -38 134 -33 175 9
77 25 117 71 178 58 77 60 111 9 178 -48 63 -72 119 -79 185 -6 50 -1 79 32
184 17 52 -1 87 -66 133 -103 72 -151 166 -151 293 0 101 -21 132 -95 144
-110 18 -214 123 -246 249 -7 29 -22 55 -40 70 -25 21 -38 24 -111 23 -126 0
-210 43 -279 145 -58 85 -82 93 -182 58 -68 -24 -158 -26 -218 -5 -23 9 -67
33 -96 55 -63 48 -97 56 -138 35z"/>
<path d="M2466 3551 c22 -10 51 -31 63 -47 19 -23 20 -24 9 -4 -18 29 -74 70
-97 70 -9 0 2 -9 25 -19z"/>
<path d="M2559 3453 c12 -23 80 -83 95 -83 6 0 -6 11 -24 25 -19 14 -45 38
-58 53 -18 21 -21 22 -13 5z"/>
<path d="M2994 3337 c43 -43 55 -63 70 -118 20 -75 56 -122 112 -145 50 -21
53 -12 4 10 -52 23 -74 52 -100 133 -24 74 -67 136 -110 158 -21 11 -16 2 24
-38z"/>
<path d="M803 3338 c-11 -13 -24 -30 -28 -38 -8 -16 -6 -14 34 33 14 15 22 27
19 27 -2 0 -14 -10 -25 -22z"/>
<path d="M2698 3353 c7 -3 16 -2 19 1 4 3 -2 6 -13 5 -11 0 -14 -3 -6 -6z"/>
<path d="M2805 3340 c44 -3 90 -11 101 -18 38 -20 72 -70 89 -129 33 -114 88
-168 205 -203 109 -32 140 -79 140 -210 0 -66 4 -86 28 -131 17 -33 45 -66 72
-86 25 -18 60 -47 79 -64 23 -22 30 -25 22 -11 -6 11 -37 40 -68 64 -32 24
-71 63 -87 86 -27 39 -31 52 -36 146 -5 88 -9 109 -30 140 -27 39 -80 70 -149
87 -69 17 -142 96 -165 179 -34 121 -86 161 -211 158 l-70 -1 80 -7z"/>
<path d="M746 3245 c-3 -9 -6 -24 -5 -33 0 -9 5 -4 10 12 9 32 6 48 -5 21z"/>
<path d="M726 3175 c-9 -26 -7 -32 5 -12 6 10 9 21 6 23 -2 3 -7 -2 -11 -11z"/>
<path d="M689 3113 l-24 -28 28 24 c25 23 32 31 24 31 -2 0 -14 -12 -28 -27z"/>
<path d="M3238 3053 c7 -3 16 -2 19 1 4 3 -2 6 -13 5 -11 0 -14 -3 -6 -6z"/>
<path d="M3295 3031 c39 -23 84 -76 102 -118 7 -18 13 -67 13 -110 0 -104 23
-151 100 -203 68 -46 91 -76 115 -145 19 -56 16 -94 -15 -186 -26 -75 -15
-134 36 -196 47 -57 64 -102 64 -168 0 -65 -15 -105 -63 -168 -20 -26 -40 -67
-46 -95 -9 -42 -7 -59 15 -128 42 -131 13 -220 -98 -302 -29 -22 -60 -48 -69
-58 -25 -29 -38 -83 -37 -154 2 -126 -63 -212 -193 -255 -96 -32 -130 -67
-158 -162 -34 -113 -94 -163 -225 -189 l-71 -13 72 3 c123 6 206 74 241 201
22 81 67 125 149 147 78 22 140 70 172 133 22 41 26 65 29 144 3 112 9 124 97
188 110 79 148 188 106 308 -32 92 -29 144 15 201 104 136 104 244 -1 388 -42
58 -46 110 -14 201 16 46 20 73 15 113 -11 90 -37 128 -148 214 -51 39 -68 82
-68 175 0 67 -4 88 -27 134 -27 51 -98 119 -126 119 -7 0 2 -8 18 -19z"/>
<path d="M454 2988 l-19 -23 23 19 c21 18 27 26 19 26 -2 0 -12 -10 -23 -22z"/>
<path d="M410 2918 c-15 -33 -19 -63 -18 -128 l1 -85 7 95 c4 61 12 107 23
128 10 17 15 32 12 32 -3 0 -15 -19 -25 -42z"/>
<path d="M553 2755 c0 -22 2 -30 4 -17 2 12 2 30 0 40 -3 9 -5 -1 -4 -23z"/>
<path d="M537 2679 c-10 -49 -57 -119 -107 -160 -63 -50 -100 -86 -100 -97 0
-6 16 4 34 22 19 17 54 47 77 66 61 51 119 155 106 193 -2 6 -7 -4 -10 -24z"/>
<path d="M380 2692 c0 -6 -14 -28 -32 -49 -29 -34 -29 -35 -4 -13 31 28 50 59
42 68 -3 3 -6 0 -6 -6z"/>
<path d="M975 2604 c-11 -2 -47 -9 -80 -15 -73 -14 -211 -77 -249 -116 -152
-151 -157 -410 -10 -557 77 -77 170 -119 380 -171 218 -55 324 -119 296 -179
-6 -14 -26 -33 -44 -43 -29 -16 -60 -18 -283 -17 -220 0 -393 13 -440 31 -14
5 -15 -16 -13 -157 l3 -163 63 -13 c186 -38 522 -37 687 1 196 46 314 153 350
318 3 15 10 25 15 22 6 -4 10 -79 10 -181 l0 -174 170 0 170 0 0 380 c0 209 4
380 9 380 4 0 63 -96 131 -212 67 -117 129 -219 138 -225 19 -15 287 -18 325
-4 18 7 60 71 153 233 l129 223 3 -388 2 -387 173 2 172 3 0 700 0 700 -171 3
-172 2 -62 -112 c-35 -62 -77 -138 -95 -168 -18 -30 -86 -149 -150 -265 -65
-115 -123 -216 -130 -223 -12 -14 -12 -15 -318 528 -60 107 -116 205 -124 218
-13 21 -18 22 -183 22 l-170 0 0 -469 c0 -262 -4 -472 -9 -475 -5 -3 -14 16
-20 42 -33 135 -123 222 -286 277 -27 9 -119 34 -202 56 -222 56 -283 93 -285
169 -1 39 18 59 68 70 52 13 347 12 459 0 50 -6 118 -13 153 -17 l62 -6 0 144
c0 79 -4 150 -8 157 -18 28 -190 52 -397 57 -110 2 -209 2 -220 -1z"/>
<path d="M239 2553 l-34 -38 38 34 c34 33 42 41 34 41 -2 0 -19 -17 -38 -37z"/>
<path d="M195 2499 c-4 -6 -5 -12 -2 -15 2 -3 7 2 10 11 7 17 1 20 -8 4z"/>
<path d="M3555 2390 c0 -37 3 -63 7 -57 4 7 8 32 8 57 0 25 -4 50 -8 57 -4 6
-7 -20 -7 -57z"/>
<path d="M171 2389 c0 -31 6 -76 15 -100 9 -24 19 -64 24 -89 8 -44 8 -44 9
-9 0 20 -6 56 -15 80 -9 24 -20 73 -24 109 l-7 65 -2 -56z"/>
<path d="M321 2384 c0 -11 3 -14 6 -6 3 7 2 16 -1 19 -3 4 -6 -2 -5 -13z"/>
<path d="M340 2325 c0 -5 5 -17 10 -25 5 -8 10 -10 10 -5 0 6 -5 17 -10 25 -5
8 -10 11 -10 5z"/>
<path d="M3536 2295 c-3 -9 -6 -22 -5 -28 0 -7 5 -1 10 12 5 13 8 26 5 28 -2
2 -6 -3 -10 -12z"/>
<path d="M362 2250 c0 -14 2 -19 5 -12 2 6 2 18 0 25 -3 6 -5 1 -5 -13z"/>
<path d="M3523 2200 c0 -30 2 -43 4 -27 2 15 2 39 0 55 -2 15 -4 2 -4 -28z"/>
<path d="M362 2140 c0 -14 2 -19 5 -12 2 6 2 18 0 25 -3 6 -5 1 -5 -13z"/>
<path d="M3530 2129 c0 -19 50 -99 76 -119 10 -8 4 4 -14 27 -18 22 -39 56
-47 75 -8 18 -14 26 -15 17z"/>
<path d="M170 2088 c-15 -21 -17 -28 -6 -19 16 13 41 51 33 51 -2 0 -14 -15
-27 -32z"/>
<path d="M342 2076 c-7 -20 -31 -59 -53 -88 -21 -29 -39 -59 -38 -68 0 -8 4
-5 10 9 5 13 21 37 35 54 30 36 66 105 62 118 -2 6 -9 -6 -16 -25z"/>
<path d="M115 2009 c-4 -6 -5 -12 -2 -15 2 -3 7 2 10 11 7 17 1 20 -8 4z"/>
<path d="M101 1964 c0 -11 3 -14 6 -6 3 7 2 16 -1 19 -3 4 -6 -2 -5 -13z"/>
<path d="M91 1895 c-1 -55 26 -119 82 -193 26 -36 32 -53 32 -95 0 -29 -3 -63
-7 -77 -4 -14 -1 -9 8 10 23 50 14 119 -22 171 -58 83 -77 123 -84 178 l-7 56
-2 -50z"/>
<path d="M3642 1910 c0 -19 2 -27 5 -17 2 9 2 25 0 35 -3 9 -5 1 -5 -18z"/>
<path d="M250 1879 c0 -9 14 -34 31 -55 18 -22 42 -61 55 -89 13 -27 24 -44
24 -37 0 18 -39 93 -60 117 -10 11 -26 34 -34 50 -9 17 -16 23 -16 14z"/>
<path d="M3621 1833 c-10 -26 -10 -27 4 -9 8 11 15 23 15 28 0 15 -7 8 -19
-19z"/>
<path d="M3583 1778 c-24 -27 -53 -81 -53 -100 0 -7 10 7 21 32 11 25 30 55
41 68 12 12 19 22 16 22 -2 0 -14 -10 -25 -22z"/>
<path d="M362 1650 c0 -19 2 -27 5 -17 2 9 2 25 0 35 -3 9 -5 1 -5 -18z"/>
<path d="M3523 1610 c0 -30 2 -43 4 -27 2 15 2 39 0 55 -2 15 -4 2 -4 -28z"/>
<path d="M363 1565 c0 -22 2 -30 4 -17 2 12 2 30 0 40 -3 9 -5 -1 -4 -23z"/>
<path d="M337 1472 c-9 -26 -17 -54 -17 -62 0 -8 10 11 21 44 11 32 18 60 16
62 -2 2 -11 -18 -20 -44z"/>
<path d="M3540 1515 c0 -5 5 -17 10 -25 5 -8 10 -10 10 -5 0 6 -5 17 -10 25
-5 8 -10 11 -10 5z"/>
<path d="M176 1484 c-3 -9 -6 -41 -6 -72 0 -96 44 -168 142 -232 57 -38 78
-84 78 -172 0 -149 60 -236 190 -277 86 -28 132 -65 149 -123 36 -118 69 -165
142 -202 45 -22 66 -26 138 -26 103 0 131 -14 189 -92 51 -68 79 -93 124 -113
52 -21 147 -19 210 5 78 30 117 26 174 -15 106 -75 194 -100 270 -75 33 11
126 71 159 104 16 16 -48 -25 -70 -45 -34 -30 -108 -59 -155 -59 -50 0 -121
31 -187 81 -56 43 -124 49 -207 20 -70 -25 -133 -27 -184 -6 -42 18 -107 77
-128 117 -8 15 -30 39 -49 54 -30 23 -51 28 -133 36 -161 14 -233 68 -273 200
-26 87 -67 129 -148 152 -65 18 -128 59 -158 103 -32 45 -43 90 -43 172 0 95
-20 132 -107 195 -83 61 -117 128 -111 221 2 36 3 65 2 65 -1 0 -5 -7 -8 -16z"/>
<path d="M331 1383 c-1 -16 22 -39 81 -79 55 -38 101 -102 121 -170 9 -27 16
-42 16 -33 2 29 -28 100 -58 141 -16 22 -56 59 -89 83 -33 24 -62 50 -65 57
-4 10 -6 10 -6 1z"/>
<path d="M552 1040 c0 -19 2 -27 5 -17 2 9 2 25 0 35 -3 9 -5 1 -5 -18z"/>
<path d="M2700 380 c-11 -7 -5 -8 20 -4 43 8 51 14 19 14 -13 0 -31 -5 -39
-10z"/>
<path d="M2647 343 c-14 -16 -41 -48 -59 -73 -20 -26 -55 -56 -88 -73 -37 -20
-45 -27 -26 -23 41 10 99 54 127 95 13 20 37 50 53 68 34 40 28 44 -7 6z"/>
<path d="M2168 203 c6 -2 18 -2 25 0 6 3 1 5 -13 5 -14 0 -19 -2 -12 -5z"/>
<path d="M2228 203 c7 -3 16 -2 19 1 4 3 -2 6 -13 5 -11 0 -14 -3 -6 -6z"/>
<path d="M2290 183 c19 -9 62 -17 95 -19 l60 -3 -60 9 c-33 5 -73 13 -88 19
-42 16 -47 12 -7 -6z"/>
</g>
</svg>
